<svg width="27" height="27" viewBox="0 0 27 27" fill="none" xmlns="http://www.w3.org/2000/svg">
<path d="M19.2961 20.1068C19.1102 20.2933 18.8083 20.2938 18.6218 20.108C18.5319 20.0184 18.4814 19.8966 18.4816 19.7697L18.4823 8.11011L6.82271 8.1108C6.55945 8.10625 6.34975 7.8891 6.3543 7.62583C6.35879 7.36901 6.56589 7.1619 6.82268 7.15745L18.9589 7.15745C19.2222 7.15748 19.4356 7.37087 19.4356 7.63414L19.4356 19.7704C19.4355 19.8966 19.3853 20.0175 19.2961 20.1068Z" fill="white" stroke="white"/>
<path d="M19.3732 7.89321L7.42423 19.8422C7.28077 19.9856 7.01355 19.951 6.82736 19.7648C6.64118 19.5786 6.60654 19.3114 6.75 19.1679L18.699 7.21897C18.8424 7.07551 19.1097 7.11014 19.2959 7.29633C19.482 7.48253 19.5166 7.74975 19.3732 7.89321Z" fill="white" stroke="white"/>
</svg>
