<svg width="66" height="66" viewBox="0 0 66 66" fill="none" xmlns="http://www.w3.org/2000/svg">
<path d="M47.3382 50.2368C46.8769 50.6998 46.1275 50.7011 45.6645 50.2398C45.4413 50.0174 45.316 49.7151 45.3164 49.4L45.3182 20.4583L16.3764 20.46C15.7229 20.4487 15.2024 19.9096 15.2137 19.2562C15.2248 18.6187 15.7389 18.1046 16.3763 18.0935L46.5013 18.0935C47.1547 18.0936 47.6844 18.6233 47.6846 19.2768L47.6846 49.4018C47.6843 49.715 47.5597 50.0153 47.3382 50.2368Z" fill="black" stroke="black" stroke-width="3"/>
<path d="M47.5297 19.9199L17.8697 49.58C17.5136 49.9361 16.8503 49.8502 16.3881 49.388C15.9259 48.9259 15.84 48.2625 16.1961 47.9064L45.8562 18.2463C46.2123 17.8902 46.8757 17.9762 47.3378 18.4383C47.7999 18.9005 47.8858 19.5638 47.5297 19.9199Z" fill="black" stroke="black" stroke-width="3"/>
</svg>