<svg width="17" height="17" viewBox="0 0 17 17" fill="none" xmlns="http://www.w3.org/2000/svg">
<path d="M8.56495 1C8.78487 0.999591 8.96346 1.17758 8.96387 1.3975C8.96405 1.50352 8.92195 1.60524 8.84687 1.68013L1.96048 8.56567L8.84687 15.4512C8.99967 15.6094 8.99526 15.8615 8.83709 16.0143C8.68277 16.1633 8.43814 16.1633 8.28385 16.0143L1.11636 8.8468C0.960911 8.69132 0.960911 8.43926 1.11636 8.28374L8.28385 1.11625C8.35844 1.04181 8.45953 1 8.56495 1Z" fill="white" stroke="white"/>
<path d="M1.30696 8.16764L15.4207 8.16764C15.5902 8.16764 15.7275 8.3459 15.7275 8.56581C15.7275 8.78573 15.5902 8.96402 15.4207 8.96402L1.30693 8.96402C1.13748 8.96402 1.0001 8.78573 1.0001 8.56581C1.00013 8.3459 1.1375 8.16764 1.30696 8.16764Z" fill="white" stroke="white"/>
</svg>
