<svg width="26" height="27" viewBox="0 0 26 27" fill="none" xmlns="http://www.w3.org/2000/svg">
<path d="M18.8693 20.1068C18.6835 20.2933 18.3816 20.2938 18.195 20.108C18.1051 20.0184 18.0547 19.8966 18.0548 19.7697L18.0555 8.11013L6.39596 8.11082C6.13269 8.10627 5.92299 7.88911 5.92754 7.62584C5.93203 7.36902 6.13914 7.16192 6.39592 7.15746L18.5322 7.15746C18.7954 7.15749 19.0088 7.37089 19.0089 7.63416L19.0089 19.7704C19.0087 19.8966 18.9586 20.0176 18.8693 20.1068Z" fill="#707070" stroke="#616161"/>
<path d="M18.9464 7.89312L6.99747 19.8421C6.85401 19.9855 6.58679 19.9509 6.40061 19.7647C6.21442 19.5786 6.17978 19.3113 6.32324 19.1678L18.2722 7.21887C18.4157 7.07541 18.6829 7.11005 18.8691 7.29623C19.0553 7.48244 19.0899 7.74966 18.9464 7.89312Z" fill="#707070" stroke="#616161"/>
</svg>
