<svg width="61" height="61" viewBox="0 0 61 61" fill="none" xmlns="http://www.w3.org/2000/svg">
<path d="M26.66 37H19.98V23H26.04C27.28 23 28.26 23.3067 28.98 23.92C29.7 24.52 30.06 25.3467 30.06 26.4C30.06 27.12 29.8933 27.74 29.56 28.26C29.24 28.78 28.7933 29.1467 28.22 29.36C29.1533 29.5067 29.8933 29.9133 30.44 30.58C30.9867 31.2467 31.26 32.0867 31.26 33.1C31.26 34.2867 30.8467 35.2333 30.02 35.94C29.1933 36.6467 28.0733 37 26.66 37ZM21.46 30.22V35.66H26.4C27.44 35.66 28.2467 35.42 28.82 34.94C29.3933 34.46 29.68 33.7867 29.68 32.92C29.68 32.0667 29.3933 31.4067 28.82 30.94C28.2467 30.46 27.44 30.22 26.4 30.22H21.46ZM21.46 24.34V28.92H25.8C26.6933 28.92 27.38 28.7267 27.86 28.34C28.3533 27.9533 28.6 27.3933 28.6 26.66C28.6 25.9133 28.3533 25.34 27.86 24.94C27.38 24.54 26.6933 24.34 25.8 24.34H21.46ZM38.8317 37.24C37.3251 37.24 36.0584 36.7667 35.0317 35.82C34.0184 34.8867 33.5117 33.6733 33.5117 32.18C33.5117 30.74 33.9651 29.5333 34.8717 28.56C35.7917 27.5867 36.9717 27.1 38.4117 27.1C39.1851 27.1 39.8717 27.26 40.4717 27.58C41.0717 27.8867 41.5451 28.2933 41.8917 28.8C42.2384 29.3067 42.4984 29.8467 42.6717 30.42C42.8451 30.98 42.9317 31.5467 42.9317 32.12V32.52H34.9917C35.0717 33.56 35.4851 34.3933 36.2317 35.02C36.9917 35.6333 37.9517 35.94 39.1117 35.94C40.2317 35.94 41.2651 35.64 42.2117 35.04V36.32C41.4251 36.9333 40.2984 37.24 38.8317 37.24ZM35.0117 31.34H41.4717C41.4317 30.5933 41.1517 29.92 40.6317 29.32C40.1384 28.7067 39.3784 28.4 38.3517 28.4C37.3917 28.4 36.6051 28.6933 35.9917 29.28C35.3917 29.88 35.0651 30.5667 35.0117 31.34Z" fill="#F5C13F"/>
<circle cx="30.5" cy="30.5" r="29.5" stroke="#F5C13F" stroke-width="2"/>
</svg>
