<svg width="27" height="27" viewBox="0 0 27 27" fill="none" xmlns="http://www.w3.org/2000/svg">
<path d="M13.5 11.4118L23.9793 0.932516C23.9793 0.932508 23.9793 0.932501 23.9793 0.932493C24.556 0.355786 25.4909 0.355941 26.0675 0.932471C26.6442 1.5091 26.6442 2.44405 26.0675 3.0207L15.5882 13.5L26.0675 23.9793C26.0675 23.9793 26.0675 23.9793 26.0675 23.9793C26.6442 24.5559 26.6441 25.4909 26.0675 26.0675L26.0675 26.0676C25.7792 26.3557 25.4005 26.4999 25.0234 26.4999C24.6463 26.4999 24.2675 26.3558 23.9792 26.0675L13.5 15.5882L3.02075 26.0675L3.0207 26.0676C2.73245 26.3557 2.35373 26.4999 1.97662 26.4999C1.59956 26.4999 1.22076 26.3558 0.932515 26.0675L13.5 11.4118ZM13.5 11.4118L3.0207 0.932494L2.67638 1.27681L3.0207 0.932493C2.44405 0.355848 1.5091 0.355816 0.93247 0.932516C0.355941 1.50912 0.355787 2.44404 0.932493 3.0207C0.932501 3.02071 0.932508 3.02071 0.932516 3.02072L11.4118 13.5L0.932492 23.9793C0.355855 24.5559 0.355816 25.4909 0.932494 26.0675L13.5 11.4118Z" fill="black" stroke="black"/>
</svg>
