<svg width="61" height="61" viewBox="0 0 61 61" fill="none" xmlns="http://www.w3.org/2000/svg">
<path d="M19.46 37H17.98V23H27.52V24.34H19.46V29H26V30.34H19.46V37ZM30.1414 37V23H31.5814V28.88C32.4881 27.6933 33.7347 27.1 35.3214 27.1C36.7481 27.1 37.9147 27.5933 38.8214 28.58C39.7281 29.5667 40.1814 30.7667 40.1814 32.18C40.1814 33.58 39.7281 34.7733 38.8214 35.76C37.9147 36.7467 36.7481 37.24 35.3214 37.24C33.7347 37.24 32.4881 36.6467 31.5814 35.46V37H30.1414ZM31.5814 30.58V33.76C31.8747 34.4 32.3347 34.9267 32.9614 35.34C33.5881 35.74 34.2614 35.94 34.9814 35.94C36.0614 35.94 36.9481 35.58 37.6414 34.86C38.3481 34.1267 38.7014 33.2333 38.7014 32.18C38.7014 31.1267 38.3481 30.2333 37.6414 29.5C36.9481 28.7667 36.0614 28.4 34.9814 28.4C34.2481 28.4 33.5681 28.6067 32.9414 29.02C32.3147 29.42 31.8614 29.94 31.5814 30.58Z" fill="#7C7C7C"/>
<circle cx="30.5" cy="30.5" r="29.5" stroke="#7C7C7C" stroke-width="2"/>
</svg>
