<svg width="30" height="38" viewBox="0 0 30 38" fill="none" xmlns="http://www.w3.org/2000/svg">
<path d="M10.744 11H6.392V10.576L9.824 5.936H6.584V5.4H10.616V5.816L7.216 10.464H10.744V11Z" fill="white"/>
<path d="M20.744 22H16.392V21.576L19.824 16.936H16.584V16.4H20.616V16.816L17.216 21.464H20.744V22Z" fill="white"/>
<path d="M16.792 5.4H17.384V7.832L19.976 5.4H20.76L18.008 7.96L21.184 11H20.352L17.384 8.152V11H16.792V5.4Z" fill="white"/>
<path d="M5.856 22H5.24L7.736 16.368H8.288L10.792 22H10.168L9.472 20.456H6.536L5.856 22ZM8.008 17.112L6.736 19.936H9.28L8.008 17.112Z" fill="white"/>
<path d="M27.0002 0.00050354H0V0.796498H27.0002V0.00050354Z" fill="white"/>
<path d="M27.0002 26.2059H0V27.0019H27.0002V26.2059Z" fill="white"/>
<path d="M0.795898 27.0045L0.795898 0L0.000201464 0L0.000201464 27.0045L0.795898 27.0045Z" fill="white"/>
<path d="M27.001 27.0045L27.001 0L26.2053 0L26.2053 27.0045L27.001 27.0045Z" fill="white"/>
</svg>
