<svg width="196" height="31" viewBox="0 0 89 14" fill="none" xmlns="http://www.w3.org/2000/svg">
                    <path d="M58.3019 0.204852L52.7871 12.9757H54.1725L56.0216 8.69003H61.9677L63.8167 12.9757H65.1968L59.7197 0.204852H58.3019ZM61.4663 7.531H56.5229L59.0135 1.67116L61.4663 7.531ZM41.6011 0.204852V12.9757H45.1267C47.0943 12.9757 48.7709 12.7008 50.2965 11.3154C51.6119 10.1078 52.3881 8.39353 52.3881 6.56065C52.3881 4.71159 51.5094 2.87871 50.0539 1.68733C48.5822 0.512129 46.8733 0.221024 45.0404 0.199461H41.6011V0.204852ZM44.5229 11.8167H42.8841V1.35849H44.5229C46.2156 1.34232 47.7197 1.42857 49.1213 2.51752C50.4367 3.55256 51.089 4.90027 51.1105 6.56065C51.0943 8.18329 50.4205 9.63881 49.1375 10.6415C47.7197 11.7628 46.2156 11.8005 44.5229 11.8167ZM33.2022 0.204852L27.6873 12.9757H29.0728L30.9218 8.69003H36.8679L38.717 12.9757H40.097L34.6199 0.204852H33.2022ZM36.3666 7.531H31.4232L33.9137 1.67116L36.3666 7.531ZM15.0512 6.56604C14.9326 15.1806 27.5849 15.4232 27.5849 6.56604V0.204852H26.3935V6.56604C26.3935 13.7682 16.1887 13.6119 16.2372 6.56604V0.204852H15.0512V6.56604ZM13.531 13.2022V12.0108L13.2561 12.027C12.6685 12.027 12.0809 11.752 11.5957 11.407C12.9111 10.1995 13.7412 8.50135 13.7412 6.72237C13.7412 2.81941 10.7332 0 6.87871 0C3.0566 0 0 2.79784 0 6.69003C0 10.4043 3.21294 13.2075 6.84097 13.2075C8.14016 13.2075 9.5903 12.8625 10.6792 12.1186C11.4555 12.8625 12.3019 13.2075 13.3747 13.2075H13.531V13.2022ZM9.01887 10.6954L9.69272 11.2129C8.93261 11.7466 7.85984 11.973 6.9434 11.973C5.80593 11.973 4.74933 11.7305 3.77898 11.0889C3.12129 10.6577 2.36119 9.95148 2 9.23989C2.61995 8.98113 3.29919 8.87871 3.96765 8.87871C4.91644 8.87871 5.95687 9.06739 6.85175 9.38005C7.71428 9.69272 8.30189 10.1402 9.01348 10.6954H9.01887ZM4.21563 7.68733C3.29919 7.68733 2.36658 7.84367 1.48248 8.15633C1.32615 7.67116 1.25606 7.19137 1.27763 6.7062C1.26146 3.59569 3.80054 1.22911 6.86253 1.22911C9.97305 1.22911 12.4636 3.57951 12.4636 6.7062C12.4636 8.15633 11.7574 9.55795 10.717 10.5283C8.7655 8.7655 6.91644 7.69272 4.22102 7.69272L4.21563 7.68733ZM67.9892 6.57682L70.4852 8.49057C70.6523 8.62534 70.8464 8.72237 71.0458 8.78706C71.2561 8.85714 71.4771 8.89488 71.7035 8.89488C72.1995 8.89488 72.6792 8.79784 73.1375 8.59838C73.5795 8.40431 73.9784 8.13477 74.3181 7.79515C74.6577 7.45553 74.9218 7.0566 75.1105 6.61456C75.3046 6.15633 75.4016 5.67655 75.4016 5.18059C75.4016 4.68464 75.3046 4.20485 75.1105 3.74663C74.9218 3.30458 74.6577 2.90566 74.3181 2.56604C73.9784 2.22102 73.5795 1.95687 73.1375 1.7628C72.6846 1.56334 72.2048 1.46631 71.7035 1.46631H67.9892C67.9892 3.16981 67.9892 4.87332 67.9892 6.57682ZM72.5229 10.0916L76.1402 12.8733C76.2749 12.9811 76.3666 13.1213 76.3881 13.2938C76.4097 13.4663 76.3558 13.628 76.248 13.7628C76.1186 13.9191 75.9515 14 75.7466 14C75.6011 14 75.4663 13.9623 75.3531 13.8706L67.9892 8.16712V12.9704H66.7278C66.7278 9.13208 66.7278 5.29919 66.7278 1.46092V0.199461H67.9892H71.6981C72.3666 0.199461 73.0081 0.32345 73.6172 0.587601C74.2102 0.84097 74.7439 1.19677 75.1968 1.65499C75.655 2.11321 76.0108 2.6469 76.2695 3.23989C76.5391 3.85984 76.6685 4.51213 76.6685 5.18598C76.6685 5.80593 76.5606 6.40431 76.3288 6.97574C76.1078 7.531 75.8005 8.03774 75.407 8.48518C75.0135 8.93262 74.5445 9.2938 74.0269 9.57952C73.5579 9.83288 73.0512 10.0054 72.5283 10.0916H72.5229ZM82.6092 1.48248V12.9757H83.8868V1.48248H88.1941V0.204852H78.2965V1.48248H82.6038H82.6092Z" fill="black" />
                </svg>