<svg width="359" height="57" viewBox="0 0 359 57" fill="none" xmlns="http://www.w3.org/2000/svg">
<path d="M237.322 0.845948L214.873 52.8307H220.513L228.04 35.3854H252.244L259.77 52.8307H265.388L243.093 0.845948H237.322ZM250.203 30.6675H230.08L240.218 6.81465L250.203 30.6675ZM169.34 0.845948V52.8307H183.691C191.701 52.8307 198.525 51.7116 204.735 46.0721C210.09 41.1566 213.25 34.1785 213.25 26.7176C213.25 19.1909 209.673 11.7301 203.748 6.88048C197.757 2.09674 190.801 0.911779 183.34 0.824004H169.34V0.845948ZM181.234 48.1128H174.563V5.54191H181.234C188.124 5.47608 194.246 5.82718 199.952 10.2598C205.306 14.473 207.961 19.959 208.049 26.7176C207.983 33.3227 205.24 39.2475 200.017 43.3291C194.246 47.8934 188.124 48.047 181.234 48.1128ZM135.152 0.845948L112.703 52.8307H118.343L125.869 35.3854H150.073L157.6 52.8307H163.218L140.923 0.845948H135.152ZM148.033 30.6675H127.91L138.048 6.81465L148.033 30.6675ZM61.267 26.7396C60.7842 61.8057 112.286 62.7932 112.286 26.7396V0.845948H107.437V26.7396C107.437 56.0565 65.8971 55.4201 66.0946 26.7396V0.845948H61.267V26.7396ZM55.0789 53.7524V48.9028L53.9597 48.9686C51.5679 48.9686 49.176 47.8495 47.201 46.4451C52.5553 41.5297 55.9347 34.6174 55.9347 27.376C55.9347 11.4887 43.69 0.012085 28.0002 0.012085C12.4421 0.012085 0 11.4009 0 27.2443C0 42.3636 13.0785 53.7743 27.8466 53.7743C33.1351 53.7743 39.038 52.3699 43.4706 49.3417C46.6305 52.3699 50.0757 53.7743 54.4425 53.7743H55.0789V53.7524ZM36.7119 43.5485L39.4549 45.6551C36.3608 47.8276 31.994 48.7492 28.2636 48.7492C23.6334 48.7492 19.3325 47.7617 15.3826 45.1504C12.7054 43.3949 9.61137 40.5203 8.14114 37.6237C10.6647 36.5704 13.4296 36.1535 16.1506 36.1535C20.0127 36.1535 24.2479 36.9215 27.8905 38.1942C31.4015 39.467 33.7934 41.2883 36.69 43.5485H36.7119ZM17.16 31.3039C13.4296 31.3039 9.63331 31.9403 6.03454 33.213C5.39817 31.2381 5.1129 29.2851 5.20067 27.3101C5.13484 14.6486 15.4704 5.01526 27.9344 5.01526C40.596 5.01526 50.734 14.5827 50.734 27.3101C50.734 33.213 47.8594 38.9184 43.6242 42.8683C35.6806 35.6927 28.1539 31.3258 17.182 31.3258L17.16 31.3039ZM276.755 26.7835L286.915 34.5735C287.595 35.1221 288.385 35.5171 289.197 35.7804C290.053 36.0657 290.952 36.2193 291.874 36.2193C293.893 36.2193 295.846 35.8243 297.711 35.0124C299.51 34.2224 301.134 33.1252 302.517 31.7428C303.899 30.3603 304.974 28.7365 305.743 26.9371C306.533 25.0719 306.927 23.1189 306.927 21.1C306.927 19.0812 306.533 17.1282 305.743 15.263C304.974 13.4636 303.899 11.8398 302.517 10.4573C301.134 9.05292 299.51 7.97767 297.711 7.1877C295.868 6.37578 293.915 5.98079 291.874 5.98079H276.755C276.755 12.915 276.755 19.8492 276.755 26.7835ZM295.21 41.0908L309.934 52.4138C310.482 52.8527 310.855 53.4232 310.943 54.1254C311.031 54.8276 310.812 55.4859 310.373 56.0345C309.846 56.6709 309.166 57 308.332 57C307.739 57 307.191 56.8464 306.73 56.4734L276.755 33.2569V52.8088H271.62C271.62 37.1848 271.62 21.5828 271.62 5.95885V0.824004H276.755H291.852C294.573 0.824004 297.184 1.32871 299.664 2.40396C302.078 3.43531 304.25 4.8836 306.094 6.74882C307.959 8.61404 309.407 10.7865 310.46 13.2003C311.558 15.7238 312.084 18.379 312.084 21.122C312.084 23.6455 311.645 26.0813 310.702 28.4073C309.802 30.6675 308.551 32.7302 306.949 34.5516C305.348 36.3729 303.438 37.8431 301.332 39.0062C299.423 40.0375 297.36 40.7397 295.231 41.0908H295.21ZM336.266 6.04662V52.8307H341.467V6.04662H359V0.845948H318.711V6.04662H336.244H336.266Z" fill="white"/>
</svg>
