<svg width="336" height="13" viewBox="0 0 336 13" fill="none" xmlns="http://www.w3.org/2000/svg">
<path d="M5.148 11.144C3.924 11.144 2.896 10.736 2.064 9.92C1.248 9.104 0.84 8.064 0.84 6.8C0.84 5.544 1.248 4.508 2.064 3.692C2.888 2.868 3.916 2.456 5.148 2.456C6.06 2.456 6.844 2.664 7.5 3.08V3.992C6.764 3.52 5.984 3.284 5.16 3.284C4.2 3.284 3.388 3.62 2.724 4.292C2.068 4.948 1.74 5.784 1.74 6.8C1.74 7.824 2.068 8.664 2.724 9.32C3.388 9.984 4.208 10.316 5.184 10.316C6.16 10.316 6.992 10.036 7.68 9.476V10.4C6.992 10.896 6.148 11.144 5.148 11.144ZM12.4972 11H11.6092V3.404H8.71716V2.6H15.4252V3.404H12.4972V11ZM17.9678 11.144C17.5358 11.144 17.1838 11.088 16.9118 10.976V10.148C17.1998 10.26 17.5038 10.316 17.8238 10.316C18.2478 10.316 18.5918 10.14 18.8558 9.788C18.9838 9.62 19.0958 9.452 19.1918 9.284C19.2478 9.188 19.3598 8.972 19.5278 8.636L16.1438 2.6H17.1278L19.9598 7.724L22.3238 2.6H23.2718L20.1758 9.224C19.8558 9.904 19.5158 10.396 19.1558 10.7C18.8038 10.996 18.4078 11.144 17.9678 11.144ZM23.6726 12.872H22.8446V10.196H23.6366C24.1566 9.468 24.5286 8.616 24.7526 7.64C24.9846 6.648 25.1006 5.304 25.1006 3.608V2.6H30.2846V10.196H31.5566V12.872H30.7286V11H23.6726V12.872ZM24.6326 10.196H29.3966V3.404H25.9766V3.968C25.9766 6.832 25.5286 8.908 24.6326 10.196ZM33.889 11H33.145V2.6H34.021V9.512L39.241 2.6H40.021V11H39.145V4.064L33.889 11ZM42.7394 11H41.7074L44.4194 7.136C43.7954 7.032 43.3074 6.78 42.9554 6.38C42.6114 5.98 42.4394 5.48 42.4394 4.88C42.4394 4.184 42.6754 3.632 43.1474 3.224C43.6194 2.808 44.2634 2.6 45.0794 2.6H48.8474V11H47.9594V7.22H45.3914L42.7394 11ZM45.1394 6.416H47.9594V3.404H45.1394C44.5634 3.404 44.1154 3.536 43.7954 3.8C43.4754 4.064 43.3154 4.436 43.3154 4.916C43.3154 5.396 43.4754 5.768 43.7954 6.032C44.1154 6.288 44.5634 6.416 45.1394 6.416ZM55.2674 11H54.3794V2.6H60.0074V3.404H55.2674V11ZM62.533 11H61.645V2.6H65.173C66.005 2.6 66.661 2.812 67.141 3.236C67.621 3.66 67.861 4.224 67.861 4.928C67.861 5.648 67.621 6.224 67.141 6.656C66.661 7.08 66.005 7.292 65.173 7.292H62.533V11ZM62.533 3.404V6.488H65.113C65.705 6.488 66.165 6.356 66.493 6.092C66.821 5.82 66.985 5.44 66.985 4.952C66.985 4.456 66.821 4.076 66.493 3.812C66.173 3.54 65.713 3.404 65.113 3.404H62.533ZM68.8426 11H67.9186L71.6626 2.552H72.4906L76.2466 11H75.3106L74.2666 8.684H69.8626L68.8426 11ZM72.0706 3.668L70.1626 7.904H73.9786L72.0706 3.668ZM81.9821 11.252H81.0941V10.388C79.7261 10.364 78.6861 10.008 77.9741 9.32C77.2701 8.64 76.9181 7.796 76.9181 6.788C76.9181 5.796 77.2701 4.948 77.9741 4.244C78.6781 3.54 79.7181 3.176 81.0941 3.152V2.384H81.9821V3.152C83.3581 3.176 84.3981 3.536 85.1021 4.232C85.8141 4.928 86.1701 5.776 86.1701 6.776C86.1701 7.768 85.8141 8.612 85.1021 9.308C84.3981 10.004 83.3581 10.364 81.9821 10.388V11.252ZM81.0941 9.584V3.956C79.9981 3.964 79.1781 4.24 78.6341 4.784C78.0981 5.32 77.8301 5.984 77.8301 6.776C77.8301 7.56 78.0981 8.22 78.6341 8.756C79.1781 9.3 79.9981 9.576 81.0941 9.584ZM81.9821 3.956V9.584C82.5581 9.576 83.0621 9.492 83.4941 9.332C83.9341 9.172 84.2781 8.96 84.5261 8.696C84.7741 8.424 84.9581 8.128 85.0781 7.808C85.1981 7.488 85.2581 7.144 85.2581 6.776C85.2581 5.984 84.9901 5.32 84.4541 4.784C83.9101 4.24 83.0861 3.964 81.9821 3.956ZM88.9554 11H88.2114V2.6H89.0874V9.512L94.3074 2.6H95.0874V11H94.2114V4.064L88.9554 11ZM103.374 11H102.486V7.22C101.702 7.516 100.886 7.664 100.038 7.664C99.0618 7.664 98.3258 7.46 97.8298 7.052C97.3418 6.636 97.0978 5.98 97.0978 5.084V2.6H97.9858V4.856C97.9858 5.584 98.1578 6.096 98.5018 6.392C98.8458 6.688 99.4218 6.836 100.23 6.836C100.982 6.836 101.734 6.672 102.486 6.344V2.6H103.374V11ZM111.683 11H105.743V2.6H111.503V3.404H106.631V6.092H110.627V6.896H106.631V10.196H111.683V11ZM117.203 11.144C115.979 11.144 114.951 10.736 114.119 9.92C113.303 9.104 112.895 8.064 112.895 6.8C112.895 5.544 113.303 4.508 114.119 3.692C114.943 2.868 115.971 2.456 117.203 2.456C118.115 2.456 118.899 2.664 119.555 3.08V3.992C118.819 3.52 118.039 3.284 117.215 3.284C116.255 3.284 115.443 3.62 114.779 4.292C114.123 4.948 113.795 5.784 113.795 6.8C113.795 7.824 114.123 8.664 114.779 9.32C115.443 9.984 116.263 10.316 117.239 10.316C118.215 10.316 119.047 10.036 119.735 9.476V10.4C119.047 10.896 118.203 11.144 117.203 11.144ZM121.528 2.6H122.416V6.248L126.304 2.6H127.48L123.352 6.44L128.116 11H126.868L122.416 6.728V11H121.528V2.6ZM129.669 3.704C130.477 2.872 131.485 2.456 132.693 2.456C133.893 2.456 134.897 2.872 135.705 3.704C136.513 4.536 136.917 5.568 136.917 6.8C136.917 8.04 136.513 9.076 135.705 9.908C134.905 10.732 133.901 11.144 132.693 11.144C131.477 11.144 130.469 10.732 129.669 9.908C128.869 9.084 128.469 8.048 128.469 6.8C128.469 5.56 128.869 4.528 129.669 3.704ZM130.329 9.308C130.961 9.98 131.749 10.316 132.693 10.316C133.637 10.316 134.425 9.98 135.057 9.308C135.697 8.628 136.017 7.792 136.017 6.8C136.017 5.808 135.697 4.972 135.057 4.292C134.425 3.62 133.637 3.284 132.693 3.284C131.749 3.284 130.961 3.62 130.329 4.292C129.689 4.972 129.369 5.808 129.369 6.8C129.369 7.792 129.689 8.628 130.329 9.308ZM139.842 11H138.954V2.6H144.582V3.404H139.842V11ZM146.356 3.704C147.164 2.872 148.172 2.456 149.38 2.456C150.58 2.456 151.584 2.872 152.392 3.704C153.2 4.536 153.604 5.568 153.604 6.8C153.604 8.04 153.2 9.076 152.392 9.908C151.592 10.732 150.588 11.144 149.38 11.144C148.164 11.144 147.156 10.732 146.356 9.908C145.556 9.084 145.156 8.048 145.156 6.8C145.156 5.56 145.556 4.528 146.356 3.704ZM147.016 9.308C147.648 9.98 148.436 10.316 149.38 10.316C150.324 10.316 151.112 9.98 151.744 9.308C152.384 8.628 152.704 7.792 152.704 6.8C152.704 5.808 152.384 4.972 151.744 4.292C151.112 3.62 150.324 3.284 149.38 3.284C148.436 3.284 147.648 3.62 147.016 4.292C146.376 4.972 146.056 5.808 146.056 6.8C146.056 7.792 146.376 8.628 147.016 9.308ZM158.649 12.872H157.821V10.196H158.613C159.133 9.468 159.505 8.616 159.729 7.64C159.961 6.648 160.077 5.304 160.077 3.608V2.6H165.261V10.196H166.533V12.872H165.705V11H158.649V12.872ZM159.609 10.196H164.373V3.404H160.953V3.968C160.953 6.832 160.505 8.908 159.609 10.196ZM168.866 11H168.122V2.6H168.998V9.512L174.218 2.6H174.998V11H174.122V4.064L168.866 11ZM179.54 11.144C178.42 11.144 177.476 10.928 176.708 10.496V9.584C177.532 10.072 178.432 10.316 179.408 10.316C180.208 10.316 180.84 10.156 181.304 9.836C181.776 9.508 182.012 9.072 182.012 8.528C182.012 8.04 181.796 7.64 181.364 7.328C180.932 7.016 180.368 6.86 179.672 6.86H178.64V6.056H179.768C180.36 6.056 180.82 5.936 181.148 5.696C181.484 5.448 181.652 5.104 181.652 4.664C181.652 4.232 181.464 3.896 181.088 3.656C180.712 3.408 180.216 3.284 179.6 3.284C178.776 3.284 177.944 3.48 177.104 3.872V3.032C177.928 2.648 178.772 2.456 179.636 2.456C180.484 2.456 181.176 2.652 181.712 3.044C182.256 3.444 182.528 3.968 182.528 4.616C182.528 5.112 182.384 5.512 182.096 5.816C181.816 6.112 181.504 6.312 181.16 6.416C181.624 6.56 182.032 6.812 182.384 7.172C182.744 7.516 182.924 7.988 182.924 8.588C182.924 9.332 182.62 9.944 182.012 10.424C181.396 10.904 180.572 11.144 179.54 11.144ZM184.811 11H183.887L187.631 2.552H188.459L192.215 11H191.279L190.235 8.684H185.831L184.811 11ZM188.039 3.668L186.131 7.904H189.947L188.039 3.668ZM194.495 11H193.751V2.6H194.627V9.512L199.847 2.6H200.627V11H199.751V4.064L194.495 11ZM197.183 2.012C196.583 2.012 196.099 1.848 195.73 1.52C195.371 1.184 195.187 0.74 195.179 0.188H195.947C195.947 0.524 196.059 0.796 196.283 1.004C196.507 1.212 196.807 1.316 197.183 1.316C197.543 1.316 197.831 1.212 198.047 1.004C198.271 0.796 198.387 0.524 198.395 0.188H199.163C199.147 0.74 198.955 1.184 198.587 1.52C198.211 1.848 197.743 2.012 197.183 2.012ZM203.873 11H202.985V2.6H203.873V6.092H208.865V2.6H209.753V11H208.865V6.896H203.873V11ZM212.21 11H211.286L215.03 2.552H215.858L219.614 11H218.678L217.634 8.684H213.23L212.21 11ZM215.438 3.668L213.53 7.904H217.346L215.438 3.668ZM225.165 3.704C225.973 2.872 226.981 2.456 228.189 2.456C229.389 2.456 230.393 2.872 231.201 3.704C232.009 4.536 232.413 5.568 232.413 6.8C232.413 8.04 232.009 9.076 231.201 9.908C230.401 10.732 229.397 11.144 228.189 11.144C226.973 11.144 225.965 10.732 225.165 9.908C224.365 9.084 223.965 8.048 223.965 6.8C223.965 5.56 224.365 4.528 225.165 3.704ZM225.825 9.308C226.457 9.98 227.245 10.316 228.189 10.316C229.133 10.316 229.921 9.98 230.553 9.308C231.193 8.628 231.513 7.792 231.513 6.8C231.513 5.808 231.193 4.972 230.553 4.292C229.921 3.62 229.133 3.284 228.189 3.284C227.245 3.284 226.457 3.62 225.825 4.292C225.185 4.972 224.865 5.808 224.865 6.8C224.865 7.792 225.185 8.628 225.825 9.308ZM235.314 11H234.45V2.6H235.218L240.522 9.464V2.6H241.386V11H240.63L235.314 4.112V11ZM249.334 11H243.754V2.6H244.642V10.196H249.334V11ZM251.863 11H250.975V2.6H251.863V11ZM255.154 11H254.29V2.6H255.058L260.362 9.464V2.6H261.226V11H260.47L255.154 4.112V11ZM269.534 11H263.594V2.6H269.354V3.404H264.482V6.092H268.478V6.896H264.482V10.196H269.534V11ZM279.15 11.252H278.262V10.388C276.894 10.364 275.854 10.008 275.142 9.32C274.438 8.64 274.086 7.796 274.086 6.788C274.086 5.796 274.438 4.948 275.142 4.244C275.846 3.54 276.886 3.176 278.262 3.152V2.384H279.15V3.152C280.526 3.176 281.566 3.536 282.27 4.232C282.982 4.928 283.338 5.776 283.338 6.776C283.338 7.768 282.982 8.612 282.27 9.308C281.566 10.004 280.526 10.364 279.15 10.388V11.252ZM278.262 9.584V3.956C277.166 3.964 276.346 4.24 275.802 4.784C275.266 5.32 274.998 5.984 274.998 6.776C274.998 7.56 275.266 8.22 275.802 8.756C276.346 9.3 277.166 9.576 278.262 9.584ZM279.15 3.956V9.584C279.726 9.576 280.23 9.492 280.662 9.332C281.102 9.172 281.446 8.96 281.694 8.696C281.942 8.424 282.126 8.128 282.246 7.808C282.366 7.488 282.426 7.144 282.426 6.776C282.426 5.984 282.158 5.32 281.622 4.784C281.078 4.24 280.254 3.964 279.15 3.956ZM286.231 3.704C287.039 2.872 288.047 2.456 289.255 2.456C290.455 2.456 291.459 2.872 292.267 3.704C293.075 4.536 293.479 5.568 293.479 6.8C293.479 8.04 293.075 9.076 292.267 9.908C291.467 10.732 290.463 11.144 289.255 11.144C288.039 11.144 287.031 10.732 286.231 9.908C285.431 9.084 285.031 8.048 285.031 6.8C285.031 5.56 285.431 4.528 286.231 3.704ZM286.891 9.308C287.523 9.98 288.311 10.316 289.255 10.316C290.199 10.316 290.987 9.98 291.619 9.308C292.259 8.628 292.579 7.792 292.579 6.8C292.579 5.808 292.259 4.972 291.619 4.292C290.987 3.62 290.199 3.284 289.255 3.284C288.311 3.284 287.523 3.62 286.891 4.292C286.251 4.972 285.931 5.808 285.931 6.8C285.931 7.792 286.251 8.628 286.891 9.308ZM296.404 11H295.516V2.6H299.044C299.876 2.6 300.532 2.812 301.012 3.236C301.492 3.66 301.732 4.224 301.732 4.928C301.732 5.648 301.492 6.224 301.012 6.656C300.532 7.08 299.876 7.292 299.044 7.292H296.404V11ZM296.404 3.404V6.488H298.984C299.576 6.488 300.036 6.356 300.364 6.092C300.692 5.82 300.856 5.44 300.856 4.952C300.856 4.456 300.692 4.076 300.364 3.812C300.044 3.54 299.584 3.404 298.984 3.404H296.404ZM304.373 11H303.497V2.6H304.373L307.409 6.668L310.445 2.6H311.309V11H310.433V3.944L307.685 7.616H307.145L304.373 3.944V11ZM313.764 11H312.84L316.584 2.552H317.412L321.168 11H320.232L319.188 8.684H314.784L313.764 11ZM316.992 3.668L315.084 7.904H318.9L316.992 3.668ZM324.532 11H323.644V3.404H320.752V2.6H327.46V3.404H324.532V11ZM327.968 11H327.044L330.788 2.552H331.616L335.372 11H334.436L333.392 8.684H328.988L327.968 11ZM331.196 3.668L329.288 7.904H333.104L331.196 3.668Z" fill="white" fill-opacity="0.3"/>
</svg>
