<svg width="61" height="61" viewBox="0 0 61 61" fill="none" xmlns="http://www.w3.org/2000/svg">
<path d="M27.46 37H25.98V23H31.86C33.2467 23 34.34 23.3533 35.14 24.06C35.94 24.7667 36.34 25.7067 36.34 26.88C36.34 28.08 35.94 29.04 35.14 29.76C34.34 30.4667 33.2467 30.82 31.86 30.82H27.46V37ZM27.46 24.34V29.48H31.76C32.7467 29.48 33.5133 29.26 34.06 28.82C34.6067 28.3667 34.88 27.7333 34.88 26.92C34.88 26.0933 34.6067 25.46 34.06 25.02C33.5267 24.5667 32.76 24.34 31.76 24.34H27.46Z" fill="#F5C13F"/>
<circle cx="30.5" cy="30.5" r="29.5" stroke="#F5C13F" stroke-width="2"/>
</svg>
