<svg width="61" height="75" viewBox="0 0 61 75" fill="none" xmlns="http://www.w3.org/2000/svg">
<path d="M21.46 43H19.98V29H29.52V30.34H21.46V35H28V36.34H21.46V43ZM32.1414 43V29H33.5814V34.88C34.4881 33.6933 35.7347 33.1 37.3214 33.1C38.7481 33.1 39.9147 33.5933 40.8214 34.58C41.7281 35.5667 42.1814 36.7667 42.1814 38.18C42.1814 39.58 41.7281 40.7733 40.8214 41.76C39.9147 42.7467 38.7481 43.24 37.3214 43.24C35.7347 43.24 34.4881 42.6467 33.5814 41.46V43H32.1414ZM33.5814 36.58V39.76C33.8747 40.4 34.3347 40.9267 34.9614 41.34C35.5881 41.74 36.2614 41.94 36.9814 41.94C38.0614 41.94 38.9481 41.58 39.6414 40.86C40.3481 40.1267 40.7014 39.2333 40.7014 38.18C40.7014 37.1267 40.3481 36.2333 39.6414 35.5C38.9481 34.7667 38.0614 34.4 36.9814 34.4C36.2481 34.4 35.5681 34.6067 34.9414 35.02C34.3147 35.42 33.8614 35.94 33.5814 36.58Z" fill="#707070"/>
<circle cx="30.5" cy="35.5" r="29.5" stroke="#7C7C7C" stroke-width="2"/>
</svg>
