<svg width="61" height="75" viewBox="0 0 61 75" fill="none" xmlns="http://www.w3.org/2000/svg">
<path d="M27.46 43H25.98V29H31.86C33.2467 29 34.34 29.3533 35.14 30.06C35.94 30.7667 36.34 31.7067 36.34 32.88C36.34 34.08 35.94 35.04 35.14 35.76C34.34 36.4667 33.2467 36.82 31.86 36.82H27.46V43ZM27.46 30.34V35.48H31.76C32.7467 35.48 33.5133 35.26 34.06 34.82C34.6067 34.3667 34.88 33.7333 34.88 32.92C34.88 32.0933 34.6067 31.46 34.06 31.02C33.5267 30.5667 32.76 30.34 31.76 30.34H27.46Z" fill="#707070"/>
<circle cx="30.5" cy="35.5" r="29.5" stroke="#7C7C7C" stroke-width="2"/>
</svg>
