<svg width="61" height="75" viewBox="0 0 61 75" fill="none" xmlns="http://www.w3.org/2000/svg">
<path d="M26.66 43H19.98V29H26.04C27.28 29 28.26 29.3067 28.98 29.92C29.7 30.52 30.06 31.3467 30.06 32.4C30.06 33.12 29.8933 33.74 29.56 34.26C29.24 34.78 28.7933 35.1467 28.22 35.36C29.1533 35.5067 29.8933 35.9133 30.44 36.58C30.9867 37.2467 31.26 38.0867 31.26 39.1C31.26 40.2867 30.8467 41.2333 30.02 41.94C29.1933 42.6467 28.0733 43 26.66 43ZM21.46 36.22V41.66H26.4C27.44 41.66 28.2467 41.42 28.82 40.94C29.3933 40.46 29.68 39.7867 29.68 38.92C29.68 38.0667 29.3933 37.4067 28.82 36.94C28.2467 36.46 27.44 36.22 26.4 36.22H21.46ZM21.46 30.34V34.92H25.8C26.6933 34.92 27.38 34.7267 27.86 34.34C28.3533 33.9533 28.6 33.3933 28.6 32.66C28.6 31.9133 28.3533 31.34 27.86 30.94C27.38 30.54 26.6933 30.34 25.8 30.34H21.46ZM38.8317 43.24C37.3251 43.24 36.0584 42.7667 35.0317 41.82C34.0184 40.8867 33.5117 39.6733 33.5117 38.18C33.5117 36.74 33.9651 35.5333 34.8717 34.56C35.7917 33.5867 36.9717 33.1 38.4117 33.1C39.1851 33.1 39.8717 33.26 40.4717 33.58C41.0717 33.8867 41.5451 34.2933 41.8917 34.8C42.2384 35.3067 42.4984 35.8467 42.6717 36.42C42.8451 36.98 42.9317 37.5467 42.9317 38.12V38.52H34.9917C35.0717 39.56 35.4851 40.3933 36.2317 41.02C36.9917 41.6333 37.9517 41.94 39.1117 41.94C40.2317 41.94 41.2651 41.64 42.2117 41.04V42.32C41.4251 42.9333 40.2984 43.24 38.8317 43.24ZM35.0117 37.34H41.4717C41.4317 36.5933 41.1517 35.92 40.6317 35.32C40.1384 34.7067 39.3784 34.4 38.3517 34.4C37.3917 34.4 36.6051 34.6933 35.9917 35.28C35.3917 35.88 35.0651 36.5667 35.0117 37.34Z" fill="#707070"/>
<circle cx="30.5" cy="35.5" r="29.5" stroke="#7C7C7C" stroke-width="2"/>
</svg>
