<svg width="61" height="75" viewBox="0 0 61 75" fill="none" xmlns="http://www.w3.org/2000/svg">
<path d="M26.02 43H24.54V30.34H19.72V29H30.9V30.34H26.02V43ZM38.6781 42.38V41.36C37.8115 42.5067 36.5648 43.08 34.9381 43.08C33.5115 43.08 32.3448 42.6 31.4381 41.64C30.5315 40.6533 30.0781 39.4733 30.0781 38.1C30.0781 36.7267 30.5315 35.5467 31.4381 34.56C32.3315 33.5867 33.4981 33.1 34.9381 33.1C36.5915 33.1 37.8381 33.6733 38.6781 34.82V33.34H40.1181V42.38C40.1181 43.9 39.6181 45.06 38.6181 45.86C37.6448 46.6733 36.3981 47.08 34.8781 47.08C33.4115 47.08 32.1648 46.7867 31.1381 46.2V44.8C32.2315 45.4533 33.4315 45.78 34.7381 45.78C35.9381 45.78 36.8915 45.4933 37.5981 44.92C38.3181 44.3467 38.6781 43.5 38.6781 42.38ZM38.6781 39.66V36.52C38.4115 35.8933 37.9648 35.3867 37.3381 35C36.7115 34.6 36.0248 34.4 35.2781 34.4C34.2115 34.4 33.3248 34.7533 32.6181 35.46C31.9115 36.1667 31.5581 37.0467 31.5581 38.1C31.5581 39.1533 31.9115 40.0333 32.6181 40.74C33.3115 41.4333 34.1981 41.78 35.2781 41.78C36.0248 41.78 36.7115 41.5867 37.3381 41.2C37.9648 40.8 38.4115 40.2867 38.6781 39.66Z" fill="#707070"/>
<circle cx="30.5" cy="35.5" r="29.5" stroke="#7C7C7C" stroke-width="2"/>
</svg>
