<svg width="12" height="17" viewBox="0 0 12 17" fill="none" xmlns="http://www.w3.org/2000/svg">
<path d="M9.30421 1.37799H2.41171C2.22148 1.37799 2.06708 1.53239 2.06708 1.72263C2.06708 1.91286 2.22148 2.06726 2.41171 2.06726H9.30421C9.49512 2.06726 9.64884 1.91286 9.64884 1.72263C9.64884 1.53239 9.49444 1.37799 9.30421 1.37799Z" fill="#808080"/>
<path d="M2.89897 1.72263L4.03416 0.588114C4.16856 0.45371 4.16856 0.235207 4.03416 0.100803C3.89976 -0.033601 3.68125 -0.033601 3.54685 0.100803L2.16834 1.47931C2.03393 1.61372 2.03393 1.83222 2.16834 1.96663L3.54685 3.34514C3.61441 3.41198 3.70193 3.44578 3.79017 3.44578C3.8784 3.44578 3.9666 3.41202 4.03348 3.34446C4.16789 3.21005 4.16789 2.99155 4.03348 2.85715L2.89897 1.72263Z" fill="#808080"/>
<path d="M11.6118 4.23636C11.141 3.76559 10.4001 3.72563 9.88453 4.11918C9.82457 3.90895 9.71223 3.71044 9.5461 3.54502C9.03262 3.03154 8.19792 3.03154 7.68444 3.54502L2.99204 8.23746L2.55506 5.45427C2.44754 4.70228 1.79413 4.13504 1.03388 4.13504C0.463855 4.13504 0 4.5989 0 5.16892V11.6679C0 12.6804 0.394262 13.6322 1.11038 14.3483L2.19456 15.4325C2.90933 16.148 3.86049 16.5415 4.87162 16.5415C5.81591 16.5415 6.72087 16.1914 7.41977 15.5566L10.2677 12.965C10.7805 12.4515 10.7805 11.6162 10.2636 11.0992C10.0996 10.9352 9.90314 10.8235 9.69359 10.7656C10.0885 10.2501 10.0492 9.50638 9.57434 9.03148C9.41373 8.87087 9.22143 8.7606 9.01811 8.70064L11.6159 6.10215C12.1287 5.58867 12.1287 4.7533 11.6118 4.23636ZM11.1293 5.61349L6.99381 9.74899C6.92697 9.81655 6.89317 9.90475 6.89317 9.99298C6.89317 10.0812 6.92626 10.1694 6.99381 10.237C7.12822 10.3714 7.34672 10.3714 7.48112 10.237L8.20002 9.51808C8.4447 9.27408 8.84242 9.27341 9.09123 9.52221C9.3359 9.76689 9.3359 10.1646 9.09123 10.4093L8.37233 11.1282C8.37233 11.1289 8.37094 11.1296 8.37026 11.1302C8.23792 11.2653 8.2386 11.4818 8.37233 11.6155C8.50673 11.7499 8.72523 11.7499 8.85964 11.6155L8.88926 11.5859C9.12638 11.3488 9.53579 11.3453 9.78046 11.59C10.0251 11.8347 10.0251 12.2324 9.79219 12.466L6.95592 15.0466C6.38454 15.5656 5.64428 15.8523 4.87162 15.8523C4.04452 15.8523 3.26637 15.5305 2.6812 14.9453L1.59701 13.8611C1.01116 13.2752 0.688594 12.4964 0.688594 11.6679V5.16892C0.688594 4.97869 0.842997 4.82428 1.03323 4.82428C1.4523 4.82428 1.81277 5.13719 1.87274 5.55695L2.41723 9.01148C2.43723 9.13968 2.5275 9.24514 2.65089 9.28581C2.77357 9.32578 2.90936 9.29269 3.00102 9.20171L8.17246 4.03027C8.41714 3.78627 8.81486 3.78559 9.06367 4.0344C9.30834 4.27907 9.30834 4.67679 9.06367 4.92147L5.6153 8.3698C5.54846 8.43736 5.51466 8.52556 5.51466 8.61379C5.51466 8.70203 5.54774 8.79023 5.6153 8.85779C5.74971 8.99219 5.96821 8.99219 6.10261 8.85779L10.2381 4.72228C10.4828 4.47761 10.8805 4.47761 11.1293 4.72642C11.374 4.97109 11.374 5.36881 11.1293 5.61349Z" fill="#808080"/>
</svg>
