<svg width="61" height="61" viewBox="0 0 61 61" fill="none" xmlns="http://www.w3.org/2000/svg">
<path d="M26.02 37H24.54V24.34H19.72V23H30.9V24.34H26.02V37ZM38.6781 36.38V35.36C37.8115 36.5067 36.5648 37.08 34.9381 37.08C33.5115 37.08 32.3448 36.6 31.4381 35.64C30.5315 34.6533 30.0781 33.4733 30.0781 32.1C30.0781 30.7267 30.5315 29.5467 31.4381 28.56C32.3315 27.5867 33.4981 27.1 34.9381 27.1C36.5915 27.1 37.8381 27.6733 38.6781 28.82V27.34H40.1181V36.38C40.1181 37.9 39.6181 39.06 38.6181 39.86C37.6448 40.6733 36.3981 41.08 34.8781 41.08C33.4115 41.08 32.1648 40.7867 31.1381 40.2V38.8C32.2315 39.4533 33.4315 39.78 34.7381 39.78C35.9381 39.78 36.8915 39.4933 37.5981 38.92C38.3181 38.3467 38.6781 37.5 38.6781 36.38ZM38.6781 33.66V30.52C38.4115 29.8933 37.9648 29.3867 37.3381 29C36.7115 28.6 36.0248 28.4 35.2781 28.4C34.2115 28.4 33.3248 28.7533 32.6181 29.46C31.9115 30.1667 31.5581 31.0467 31.5581 32.1C31.5581 33.1533 31.9115 34.0333 32.6181 34.74C33.3115 35.4333 34.1981 35.78 35.2781 35.78C36.0248 35.78 36.7115 35.5867 37.3381 35.2C37.9648 34.8 38.4115 34.2867 38.6781 33.66Z" fill="#7C7C7C"/>
<circle cx="30.5" cy="30.5" r="29.5" stroke="#7C7C7C" stroke-width="2"/>
</svg>
